PathFileType	4	(X/Y/Z)	G:\マイドライブ\biomec\experimentalData\240725\SJ2.trc
DataRate	CameraRate	NumFrames	NumMarkers	Units	OrigDataRate	OrigDataStartFrame	OrigNumFrames
200.00	200.00	      5	52	mm	200.00	926	      1851
Frame#	Time	handR			wrRI			wrRO			elbRI			elbRO			shRF			shRU			shRB			handL			wrLI			wrLO			elbLI			elbLO			shLF			shLU			shLB			toeR			baRI			baRO			heelR			anRI			anRO			knRI			knRO			troR			toeL			baLI			baLO			heelL			anLI			anLO			knLI			knLO			troL			head			earR			earL			clav			c7			ribR			ribL			xiph			ASISR			ASISL			PSISR			PSISL			t8			t11			L1			L3			LS			COX			
		X1	Y1	Z1	X2	Y2	Z2	X3	Y3	Z3	X4	Y4	Z4	X5	Y5	Z5	X6	Y6	Z6	X7	Y7	Z7	X8	Y8	Z8	X9	Y9	Z9	X10	Y10	Z10	X11	Y11	Z11	X12	Y12	Z12	X13	Y13	Z13	X14	Y14	Z14	X15	Y15	Z15	X16	Y16	Z16	X17	Y17	Z17	X18	Y18	Z18	X19	Y19	Z19	X20	Y20	Z20	X21	Y21	Z21	X22	Y22	Z22	X23	Y23	Z23	X24	Y24	Z24	X25	Y25	Z25	X26	Y26	Z26	X27	Y27	Z27	X28	Y28	Z28	X29	Y29	Z29	X30	Y30	Z30	X31	Y31	Z31	X32	Y32	Z32	X33	Y33	Z33	X34	Y34	Z34	X35	Y35	Z35	X36	Y36	Z36	X37	Y37	Z37	X38	Y38	Z38	X39	Y39	Z39	X40	Y40	Z40	X41	Y41	Z41	X42	Y42	Z42	X43	Y43	Z43	X44	Y44	Z44	X45	Y45	Z45	X46	Y46	Z46	X47	Y47	Z47	X48	Y48	Z48	X49	Y49	Z49	X50	Y50	Z50	X51	Y51	Z51	X52	Y52	Z52	

926	4.625	572.44995	756.08051	867.31012	533.22089	691.80353	850.65601	502.20508	729.73846	905.48175	475.96381	586.41992	1069.58386	538.24860	539.09711	1047.99512	747.60693	738.00885	1179.89111	650.47937	702.41577	1224.84900	715.06238	703.17694	1229.19861	591.17084	1028.76147	867.96338	554.45276	1099.48425	849.34955	530.16394	1059.56042	911.86108	523.59271	1225.19446	1053.93945	591.86731	1261.46094	1022.53741	757.07886	1038.52954	1183.40955	732.31500	1082.04944	1231.00598	652.11658	1078.45142	1215.17944	704.69995	735.76672	37.80856	626.19171	792.92102	30.73922	591.40698	671.68262	44.53678	419.90710	778.64362	50.84845	525.05103	817.46350	107.84370	499.85324	722.31946	113.59251	713.71143	830.99188	414.40707	723.02228	716.31873	416.30423	491.10196	720.59760	743.01770	713.22845	1078.64380	40.68574	647.01410	1022.43896	45.88537	607.00507	1129.89417	47.92357	429.00729	1040.30249	48.93155	543.55597	997.18048	125.10081	509.37714	1087.84766	114.57995	720.08484	988.14490	424.65002	718.26239	1106.24658	432.47656	495.37616	1072.42395	740.12299	681.29584	898.25024	1469.76184	792.23822	817.06964	1340.20154	789.73932	974.71252	1335.53650	776.21362	894.83514	1165.23096	676.43854	900.47070	1275.93030	600.26013	794.91638	900.18506	609.03516	995.93158	896.24420	732.93097	895.48962	1001.04077	552.43933	790.18573	787.38708	555.77753	1008.65167	796.85419	396.74588	841.78540	870.39258	404.47025	963.70514	875.14661	530.48712	903.26440	1120.12793	478.63071	903.36249	1006.74957	454.81882	905.86487	952.68365	424.49649	902.80182	909.11005	388.11191	904.45313	869.45349	337.15359	903.94629	754.85938	
927	4.630	574.65649	757.55701	877.60144	536.12061	691.80151	860.62250	504.21878	730.04602	914.72137	475.88666	587.13721	1079.07886	538.30457	539.54285	1058.22266	746.24890	737.93402	1193.35864	648.67041	702.40796	1236.96143	713.16962	703.19525	1242.29688	594.48743	1028.52014	878.83484	558.05670	1099.65601	859.62939	532.61597	1059.56824	921.65936	524.12140	1224.59106	1064.50330	592.87231	1260.93091	1034.04163	756.08960	1037.96375	1197.63977	730.25421	1081.29419	1244.99023	650.46997	1077.95374	1227.51563	704.97272	735.70282	37.49228	626.46344	793.00122	30.67273	591.53241	671.90533	44.73740	419.71246	779.08502	52.16873	525.64191	817.83856	108.51104	500.36020	722.53888	114.27874	712.81671	830.49695	416.68573	721.52179	716.27094	418.96826	494.46295	721.21356	749.70221	713.47192	1078.73767	40.39260	647.22949	1022.55896	45.54109	607.04852	1129.71960	48.07013	429.52744	1039.43066	49.95564	544.16681	996.71643	125.92144	509.77029	1087.04871	114.84757	719.52185	988.74603	427.20102	716.66925	1106.65479	434.59537	498.26550	1072.11902	746.41107	676.63251	898.06238	1481.75977	788.34406	816.98895	1352.79980	785.95300	974.43829	1347.96240	774.89435	894.59308	1178.45764	673.38477	900.20239	1287.65430	602.22424	795.05896	910.51056	611.60114	995.86761	906.83905	733.73297	895.41998	1013.78210	556.29181	790.14154	796.28687	559.46338	1008.69714	805.65125	399.40198	842.14221	877.55670	407.41965	963.80609	882.27838	529.55078	903.10699	1129.09705	479.35199	903.37946	1014.74420	456.28476	906.03571	960.49207	426.70615	902.88556	916.46680	390.95831	904.74323	876.61163	341.26587	904.06201	761.63391	
928	4.635	577.51746	757.52136	888.09485	539.03790	691.72607	870.72827	506.41406	730.17004	924.50653	475.98068	587.68878	1088.98914	538.39813	540.08453	1068.92407	745.08868	737.90515	1207.06213	646.73450	702.54333	1249.18250	711.09692	703.16028	1255.81445	596.85638	1028.27759	889.57953	561.56329	1099.92249	870.58997	535.05182	1059.58508	931.90118	524.89685	1223.99146	1075.38000	593.95422	1260.44958	1045.91345	755.15302	1037.52295	1212.12793	728.63892	1080.04236	1258.86340	648.85138	1077.40979	1240.22864	705.21661	735.62939	37.21273	626.66193	793.01233	30.63859	591.75354	672.03760	44.94531	420.50153	779.51654	53.20765	526.42871	817.98932	109.36131	500.83481	722.75623	115.35767	711.71216	829.86615	419.20151	719.44775	715.83734	421.62320	497.88644	721.90332	756.56165	713.72644	1078.84167	40.10870	647.20215	1022.24152	45.15966	607.18744	1129.51685	48.29250	429.84995	1038.84326	51.15971	544.55438	996.68262	126.70623	510.30075	1086.48718	115.42146	718.73273	989.48932	429.96069	714.72052	1107.24097	437.05316	501.50070	1071.85950	752.99121	672.04535	897.80060	1493.85718	784.28546	816.49146	1365.64819	782.01862	974.28613	1360.60364	773.13666	894.45673	1191.97485	670.30792	899.87238	1299.49622	604.25446	795.28815	921.13647	613.99475	995.78900	917.96210	734.39551	895.20569	1026.72083	560.04559	790.40460	805.47235	563.14514	1008.93518	815.25775	402.38239	842.36285	884.98529	410.13797	964.27820	889.81061	528.39453	903.13214	1138.66345	480.17172	903.53033	1023.19159	457.95856	906.42938	968.65875	429.05963	903.21124	924.15906	393.84479	905.01672	884.07880	345.24298	904.14569	768.74042	
929	4.640	579.74609	757.62396	898.76349	541.78619	691.69958	881.44958	508.49182	730.52283	934.56573	476.07324	588.23260	1099.19556	538.79010	540.28046	1079.79431	743.64856	737.51538	1221.15125	644.94330	702.47424	1261.76501	709.12494	703.16815	1269.53015	604.44604	1028.46570	902.32214	565.01691	1100.16663	881.94598	537.43402	1059.80652	942.47540	525.65204	1223.45703	1086.69629	594.45557	1261.38330	1059.08337	754.09583	1036.89368	1226.88647	726.48248	1079.59583	1273.59473	647.15967	1076.69495	1253.19312	705.41028	735.56525	36.94156	626.85486	792.96533	30.67872	591.92017	672.06799	45.08221	420.36795	779.61749	54.95484	526.78448	817.93256	110.14783	501.06076	723.00214	116.22311	710.33801	829.47498	421.91547	717.15570	715.81958	424.73560	501.28619	722.44556	763.98975	713.94202	1078.93091	39.87801	647.47046	1022.14368	45.10474	607.33820	1129.33679	48.51456	430.90942	1038.12500	51.89810	546.09296	996.27051	127.02701	510.85971	1086.20410	116.52400	717.26306	990.28723	432.60400	712.39520	1107.63123	439.68536	504.73514	1071.75549	759.83765	667.42224	897.64636	1506.48511	780.31348	816.28516	1378.69617	778.19220	973.97607	1373.66882	771.68408	893.98950	1205.75269	667.24841	899.66498	1311.91858	606.15985	795.38910	932.41589	616.51166	995.91858	929.67273	735.21027	894.81964	1039.96814	563.63666	790.70398	815.13483	566.39978	1009.58563	824.88989	405.30954	842.90063	892.92548	413.04709	964.49695	897.78699	527.15570	902.89679	1148.42212	480.85172	903.70837	1032.09045	459.60172	906.54437	976.87476	431.19815	903.48102	932.51318	396.72757	905.30322	891.63788	349.21347	904.71466	776.53333	
930	4.645	582.17780	757.69733	910.07117	544.43445	691.89929	892.28448	510.53903	730.45038	944.77643	476.33054	588.61469	1109.64014	539.24640	540.80371	1090.53784	742.42834	737.66974	1235.59326	642.89850	702.43237	1274.58374	707.00848	703.23126	1283.54712	604.65729	1029.30457	913.70691	568.20288	1100.58118	893.43170	539.65717	1059.97485	953.63098	526.31921	1222.94141	1098.34424	595.65839	1260.91553	1071.75500	752.80487	1036.36633	1241.75366	724.65570	1078.63232	1288.24805	645.52002	1076.18201	1266.36157	705.63202	735.51971	36.70448	627.02643	792.89178	30.82059	592.13031	672.04572	45.17991	420.70648	779.60010	56.39546	527.37689	817.65875	111.37988	501.47995	722.74982	117.12168	708.65070	828.94421	425.21628	714.59528	715.49664	428.04327	504.78235	723.21887	771.79840	714.15753	1079.04504	39.67309	647.75317	1022.12256	45.18333	607.51660	1129.27319	48.71362	430.68472	1038.06152	53.76810	546.72095	996.29065	128.12421	510.87549	1086.47559	117.60379	715.45685	990.98792	435.65900	709.75690	1107.65808	442.73358	508.00443	1071.85962	767.46649	663.14587	897.47589	1519.35022	776.36560	815.87054	1392.04919	774.35187	973.69348	1386.79993	769.92261	893.60315	1219.80847	664.21027	899.30365	1324.53687	608.26880	795.37018	943.92609	618.62152	996.12732	941.54114	735.84851	894.59607	1053.59851	567.49518	790.95416	825.35498	570.21375	1009.85522	835.02496	408.56641	842.98865	901.04883	415.89294	964.66815	906.02649	525.95709	902.94598	1158.57471	481.49139	903.93689	1041.20496	461.24945	906.78271	985.66736	435.03833	904.12457	940.09564	399.98279	905.55890	899.89136	353.19861	904.83270	784.56934	
